<?xml version="1.0" encoding="UTF-8"?>
<svg xmlns="http://www.w3.org/2000/svg" xmlns:xlink="http://www.w3.org/1999/xlink" viewBox="0 0 64 64" width="64px" height="64px">
<g id="surface68798875">
<path style=" stroke:none;fill-rule:nonzero;fill:rgb(1.176471%,66.274512%,95.686275%);fill-opacity:1;" d="M 32 10.667969 C 20.21875 10.667969 10.667969 20.21875 10.667969 32 C 10.667969 43.78125 20.21875 53.332031 32 53.332031 C 43.78125 53.332031 53.332031 43.78125 53.332031 32 C 53.332031 20.21875 43.78125 10.667969 32 10.667969 Z M 32 17.777344 C 39.855469 17.777344 46.222656 24.144531 46.222656 32 C 46.222656 38.476562 41.890625 43.929688 35.972656 45.648438 C 35.730469 45.425781 35.503906 45.105469 35.515625 44.699219 C 35.539062 43.761719 35.515625 41.582031 35.515625 40.78125 C 35.515625 39.402344 34.640625 38.425781 34.640625 38.425781 C 34.640625 38.425781 41.46875 38.503906 41.46875 31.21875 C 41.46875 28.40625 40.003906 26.941406 40.003906 26.941406 C 40.003906 26.941406 40.773438 23.941406 39.734375 22.667969 C 38.570312 22.542969 36.484375 23.78125 35.59375 24.359375 C 35.59375 24.359375 34.183594 23.78125 31.835938 23.78125 C 29.488281 23.78125 28.078125 24.359375 28.078125 24.359375 C 27.1875 23.78125 25.101562 22.542969 23.9375 22.667969 C 22.898438 23.941406 23.671875 26.941406 23.671875 26.941406 C 23.671875 26.941406 22.199219 28.40625 22.199219 31.21875 C 22.199219 38.503906 29.027344 38.425781 29.027344 38.425781 C 29.027344 38.425781 28.25 39.3125 28.171875 40.578125 C 27.714844 40.742188 27.09375 40.933594 26.5 40.933594 C 25.070312 40.933594 23.980469 39.542969 23.582031 38.898438 C 23.1875 38.261719 22.378906 37.730469 21.628906 37.730469 C 21.132812 37.730469 20.890625 37.980469 20.890625 38.261719 C 20.890625 38.542969 21.585938 38.742188 22.046875 39.265625 C 23.011719 40.375 22.992188 42.859375 26.433594 42.859375 C 26.839844 42.859375 27.574219 42.769531 28.15625 42.6875 C 28.15625 43.46875 28.144531 44.21875 28.15625 44.699219 C 28.167969 45.066406 27.980469 45.363281 27.765625 45.582031 C 21.980469 43.78125 17.777344 38.378906 17.777344 32 C 17.777344 24.144531 24.144531 17.777344 32 17.777344 Z M 32 17.777344 "/>
</g>
</svg>
